C:\GBW_MyPrograms\KinderuniversiteitApp\Resultaten\TymenKool\Model6_v1.mot
version=1
nRows=7
nColumns=31
inDegrees=yes
endheader
                time	         pelvis_tilt	           pelvis_tx	           pelvis_ty	       hip_flexion_r	        knee_angle_r	       ankle_angle_r	       hip_flexion_l	        knee_angle_l	       ankle_angle_l	    lumbar_extension	          arm_flex_r	          arm_flex_l	hamstrings_r/activation	bifemsh_r/activation	glut_max_r/activation	iliopsoas_r/activation	rect_fem_r/activation	  vasti_r/activation	gastroc_r/activation	 soleus_r/activation	tib_ant_r/activation	hamstrings_l/activation	bifemsh_l/activation	glut_max_l/activation	iliopsoas_l/activation	rect_fem_l/activation	  vasti_l/activation	gastroc_l/activation	 soleus_l/activation	tib_ant_l/activation	
          0.54179928	        -10.16463184	          0.70548723	          0.35890999	        -20.34534815	        -27.01944280	          0.97605732	         27.54393565	        -17.10598369	         -5.52468669	          3.04807396	         54.17768997	         54.62355275	          0.15694697	          0.49644928	          0.11263500	          0.73552398	          0.73377224	          0.08267627	          0.06680726	          0.05561980	          0.84757269	          0.14585298	          0.17564361	          0.24757674	          0.20128025	          0.16332563	          0.06502168	          0.05868966	          0.05877821	          0.45420046	
          0.55263526	        -10.40007515	          0.71821657	          0.35177851	        -15.32158724	        -28.14161450	          2.80086630	         28.17375647	        -18.19946491	         -4.56285116	          2.54150060	         51.68094849	         52.21687611	          0.46642877	          0.41949110	          0.09534612	          0.81162447	          0.84517241	          0.08066724	          0.05667293	          0.08596252	          0.71718837	          0.12269361	          0.24966496	          0.20999370	          0.17140364	          0.13839798	          0.32001895	          0.05000773	          0.05000461	          0.38590322	
          0.56347125	        -10.71615850	          0.73081104	          0.34486930	         -8.79943305	        -31.23620937	          3.77975412	         27.46296356	        -21.14636695	         -1.72354536	          2.09769546	         48.69985854	         49.32615771	          0.39475330	          0.35433291	          0.08058971	          0.68724553	          0.71587618	          0.07768543	          0.05053283	          0.09924003	          0.60629938	          0.31508525	          0.27135360	          0.33148353	          0.14659903	          0.11793841	          0.27150091	          0.08416086	          0.14459946	          0.32833493	
          0.57430723	        -11.03589772	          0.74283928	          0.33850898	         -1.46920754	        -35.96506735	          4.63386832	         27.26947104	        -24.33756317	          1.04628021	          1.54096975	         45.53894763	         46.25484307	          0.33454214	          0.62407457	          0.16100830	          0.81701284	          0.83298217	          0.06532918	          0.10177966	          0.08367922	          0.76849569	          0.26716105	          0.23005427	          0.27948293	          0.12446045	          0.29384583	          0.31808093	          0.07105371	          0.12190913	          0.27966779	
          0.58514322	        -11.32466629	          0.75419547	          0.33404426	          6.28710050	        -41.65102804	          5.98949829	         27.61573045	        -28.31195396	          2.68766143	          0.81493764	         42.74162810	         43.54674463	          0.28886640	          0.78035131	          0.18612449	          0.89300595	          0.78938573	          0.05932591	          0.08608594	          0.07048408	          0.86413296	          0.22715930	          0.19492299	          0.23616008	          0.16057025	          0.24877673	          0.42775527	          0.06013520	          0.48794626	          0.23834201	
          0.59597921	        -11.55445605	          0.76540150	          0.33146311	         13.91130488	        -48.26295875	          7.60124911	         27.20059865	        -30.62770287	          2.39244206	          0.06256211	         40.38401027	         41.27838939	          0.25749938	          0.87172714	          0.19317497	          0.93728970	          0.87668804	          0.05006729	          0.07276747	          0.05941867	          0.78050152	          0.19357497	          0.16512593	          0.19966557	          0.13573342	          0.20953557	          0.53007492	          0.05007742	          0.69970400	          0.20314113	
          0.60681519	        -11.78158448	          0.77665648	          0.33078452	         20.95640339	        -55.39290397	          9.77019818	         25.47929665	        -30.76576594	          0.77147289	         -0.64363653	         38.46805625	         39.45159069	          0.23946869	          0.92232358	          0.16320731	          0.79243005	          0.92437671	          0.05001512	          0.06137024	          0.05017497	          0.87192447	          0.16524165	          0.13977216	          0.18974632	          0.11442242	          0.53961971	          0.65435484	          0.15733223	          0.82350516	          0.17296272	
